<svg xmlns="http://www.w3.org/2000/svg" viewBox="0 0 1022 174">
  <defs>
    <style>
      .cls-1 {
        fill-opacity: 0.89;
      }

      .cls-2 {
        isolation: isolate;
      }

      .cls-3 {
        fill: #b308ed;
      }

      .cls-4 {
        fill: #8e8e8e;
      }

      .cls-5 {
        fill: #7c0ce8;
      }
    </style>
  </defs>
  <title>Asset 1</title>
  <g id="Layer_2" data-name="Layer 2">
    <g id="Layer_1-2" data-name="Layer 1">
      <g id="NEW_PV_LOGO_onBlack" data-name="NEW PV LOGO onBlack">
        <rect id="bckgrd" class="cls-1" width="1022" height="174"/>
        <g class="cls-2">
          <g class="cls-2">
            <path class="cls-3" d="M57.65,131.19V41H96.51a27.41,27.41,0,0,1,12.19,2.73,31.64,31.64,0,0,1,9.59,7.11,33.28,33.28,0,0,1,6.29,10,30.1,30.1,0,0,1,2.28,11.36,33.13,33.13,0,0,1-8.19,21.66,28.56,28.56,0,0,1-9.4,7,28,28,0,0,1-12.13,2.6H82.41v27.69ZM82.41,81.91H95.49a5.79,5.79,0,0,0,4.26-2.09q2-2.1,2-7.56c0-3.72-.77-6.26-2.29-7.62a6.94,6.94,0,0,0-4.57-2H82.41Z"/>
          </g>
          <g class="cls-2">
            <path class="cls-4" d="M184.39,110a13.65,13.65,0,0,0,7.37-1.9,15.14,15.14,0,0,0,5-5,23,23,0,0,0,2.79-7.18,39.79,39.79,0,0,0,.89-8.51V41h24.77V87.37A61.9,61.9,0,0,1,222.74,105a38,38,0,0,1-7.49,14.16,35.28,35.28,0,0,1-12.76,9.4,44.08,44.08,0,0,1-18.1,3.43q-10.8,0-18.48-3.62a35.56,35.56,0,0,1-12.64-9.71A39.11,39.11,0,0,1,146,104.46a62.16,62.16,0,0,1-2.29-17.09V41h24.77V87.37A40.8,40.8,0,0,0,169.4,96a23.31,23.31,0,0,0,2.8,7.24,14.84,14.84,0,0,0,4.89,5A13.62,13.62,0,0,0,184.39,110Z"/>
            <path class="cls-4" d="M248.14,131.19V41h41.41a27.41,27.41,0,0,1,12.19,2.73,31.76,31.76,0,0,1,9.59,7.11,33.25,33.25,0,0,1,6.28,10,29.93,29.93,0,0,1,2.29,11.36,32.05,32.05,0,0,1-3.43,14.67A29.82,29.82,0,0,1,306.94,98l20.32,33.15H299.32L282.18,103.5h-9.27v27.69Zm24.77-49.28h15.62c1.52,0,2.94-.84,4.25-2.54s2-4.06,2-7.11-.76-5.52-2.28-7.17-3.05-2.48-4.58-2.48h-15Z"/>
            <path class="cls-4" d="M408.42,109.6v21.59H344.15V41h63.12V62.61H368.92v12.7h32.77V95.38H368.92V109.6Z"/>
          </g>
          <g class="cls-2">
            <path class="cls-5" d="M445.76,41l17.65,59.06L480.81,41h26L473.7,131.19H453.12L419.6,41Z"/>
          </g>
          <g class="cls-2">
            <path class="cls-4" d="M557.13,132A39.1,39.1,0,0,1,539.54,128,44,44,0,0,1,526,117.67,47.28,47.28,0,0,1,517.19,103a48,48,0,0,1-3.11-17,46.56,46.56,0,0,1,3.24-17.15,45.55,45.55,0,0,1,9.08-14.54,44.62,44.62,0,0,1,13.78-10,40.34,40.34,0,0,1,17.46-3.75,39.08,39.08,0,0,1,17.59,3.94,43.53,43.53,0,0,1,13.59,10.41,46.82,46.82,0,0,1,8.7,14.74,48.42,48.42,0,0,1,3.05,16.89,46,46,0,0,1-3.24,17.08,47.14,47.14,0,0,1-9,14.48,43.77,43.77,0,0,1-13.72,10.09A40.24,40.24,0,0,1,557.13,132Zm-17.9-45.72a35.77,35.77,0,0,0,1.08,8.83,23,23,0,0,0,3.36,7.56,18.09,18.09,0,0,0,5.72,5.33,16.82,16.82,0,0,0,16.13-.06,17.26,17.26,0,0,0,5.58-5.47,25.54,25.54,0,0,0,3.24-7.68A36,36,0,0,0,575.42,86a34,34,0,0,0-1.14-8.83,24.29,24.29,0,0,0-3.37-7.49,17.1,17.1,0,0,0-5.65-5.21,15.79,15.79,0,0,0-8-2,15.25,15.25,0,0,0-8.06,2,17.32,17.32,0,0,0-5.59,5.39,24.69,24.69,0,0,0-3.3,7.62A35.26,35.26,0,0,0,539.23,86.23Z"/>
          </g>
          <g class="cls-2">
            <path class="cls-4" d="M620,131.19V41h24.76V109.6h40.9v21.59Z"/>
          </g>
          <g class="cls-2">
            <path class="cls-4" d="M740.52,110a13.65,13.65,0,0,0,7.37-1.9,15.14,15.14,0,0,0,5-5,23,23,0,0,0,2.79-7.18,39.79,39.79,0,0,0,.89-8.51V41h24.77V87.37A61.9,61.9,0,0,1,778.87,105a38,38,0,0,1-7.49,14.16,35.28,35.28,0,0,1-12.76,9.4,44.08,44.08,0,0,1-18.1,3.43q-10.8,0-18.48-3.62a35.44,35.44,0,0,1-12.63-9.71,39,39,0,0,1-7.24-14.16,62.16,62.16,0,0,1-2.29-17.09V41h24.77V87.37a40.8,40.8,0,0,0,.88,8.58,23.07,23.07,0,0,0,2.8,7.24,14.84,14.84,0,0,0,4.89,5A13.62,13.62,0,0,0,740.52,110Z"/>
            <path class="cls-4" d="M872.47,131.19V83.69l-15.11,33.4H844.15L829,83.69v47.5H804.27V41h27.05l19.44,42.42L870.31,41h26.93v90.17Z"/>
            <path class="cls-4" d="M985.88,109.6v21.59H921.62V41h63.12V62.61H946.39v12.7h32.76V95.38H946.39V109.6Z"/>
          </g>
        </g>
      </g>
    </g>
  </g>
</svg>
