<svg xmlns="http://www.w3.org/2000/svg" viewBox="0 0 928.23 91.44">
  <defs>
    <style>
      .cls-1 {
        isolation: isolate;
      }

      .cls-2 {
        fill: #b308ed;
      }

      .cls-3 {
        fill: #fff;

      }

      .cls-4 {
        fill: #b308ed;
      }
    </style>
  </defs>
  <title>Asset 2</title>
  <g id="Layer_2" data-name="Layer 2">
    <g id="Layer_1-2" data-name="Layer 1">
      <g id="NEW_PV_LOGO_onBlack" data-name="NEW PV LOGO onBlack">
        <g class="cls-1">
          <g class="cls-1">
            <path class="cls-2" d="M0,90.68V.51H38.86A27.38,27.38,0,0,1,51.05,3.24a31.52,31.52,0,0,1,9.59,7.11,33.35,33.35,0,0,1,6.29,10,30.19,30.19,0,0,1,2.28,11.37A32.94,32.94,0,0,1,61,53.4a28.79,28.79,0,0,1-9.39,7A28.06,28.06,0,0,1,39.5,63H24.77V90.68ZM24.77,41.4H37.85a5.81,5.81,0,0,0,4.25-2.09q2-2.1,2-7.56t-2.29-7.62a6.94,6.94,0,0,0-4.57-2H24.77Z"/>
          </g>
          <g class="cls-1">
            <path class="cls-3" d="M126.74,69.47a13.63,13.63,0,0,0,7.37-1.91,15.2,15.2,0,0,0,4.95-5,23.34,23.34,0,0,0,2.8-7.18,39.86,39.86,0,0,0,.89-8.51V.51h24.76V46.86a62.26,62.26,0,0,1-2.41,17.59,38.18,38.18,0,0,1-7.5,14.16A35.31,35.31,0,0,1,144.84,88a44.05,44.05,0,0,1-18.1,3.43q-10.78,0-18.48-3.62A35.35,35.35,0,0,1,95.63,78.1a39,39,0,0,1-7.24-14.16A62,62,0,0,1,86.1,46.86V.51h24.77V46.86a40.15,40.15,0,0,0,.89,8.58,22.9,22.9,0,0,0,2.79,7.23,14.78,14.78,0,0,0,4.89,5A13.62,13.62,0,0,0,126.74,69.47Z"/>
            <path class="cls-3" d="M190.5,90.68V.51h41.4a27.41,27.41,0,0,1,12.19,2.73,31.76,31.76,0,0,1,9.59,7.11,33.35,33.35,0,0,1,6.29,10,30.19,30.19,0,0,1,2.28,11.37,32.05,32.05,0,0,1-3.43,14.67,29.88,29.88,0,0,1-9.52,11.11l20.32,33.15H241.68L224.53,63h-9.27V90.68ZM215.26,41.4h15.62c1.53,0,2.94-.84,4.26-2.54a11.37,11.37,0,0,0,2-7.11c0-3.13-.77-5.52-2.29-7.18s-3-2.47-4.57-2.47h-15Z"/>
            <path class="cls-3" d="M350.77,69.09V90.68H286.51V.51h63.12V22.1H311.27V34.8H344V54.86H311.27V69.09Z"/>
          </g>
          <g class="cls-1">
            <path class="cls-4" d="M388.11.51l17.66,59.05,17.39-59h26L416.05,90.68H395.48L362,.51Z"/>
          </g>
          <g class="cls-1">
            <path class="cls-3" d="M499.49,91.44A39,39,0,0,1,481.9,87.5a43.69,43.69,0,0,1-13.59-10.35,46.83,46.83,0,0,1-8.76-14.67,47.7,47.7,0,0,1-3.12-17,46.56,46.56,0,0,1,3.24-17.15,45.72,45.72,0,0,1,9.08-14.54,44.57,44.57,0,0,1,13.78-10A40.38,40.38,0,0,1,500,0a39,39,0,0,1,17.59,3.94,43.38,43.38,0,0,1,13.59,10.41,46.88,46.88,0,0,1,8.7,14.73,48.51,48.51,0,0,1,3,16.89,46.09,46.09,0,0,1-3.24,17.09,47,47,0,0,1-8.95,14.47A43.53,43.53,0,0,1,517,87.63,40.2,40.2,0,0,1,499.49,91.44ZM481.58,45.72a35.77,35.77,0,0,0,1.08,8.83A23.24,23.24,0,0,0,486,62.1a18.12,18.12,0,0,0,5.72,5.34,15.44,15.44,0,0,0,8,2,15.28,15.28,0,0,0,8.13-2.1,17.16,17.16,0,0,0,5.59-5.46,25.54,25.54,0,0,0,3.24-7.68,36.47,36.47,0,0,0,1.07-8.76,34,34,0,0,0-1.14-8.83,24.17,24.17,0,0,0-3.36-7.49,17.12,17.12,0,0,0-5.66-5.21,15.79,15.79,0,0,0-8-2,15.34,15.34,0,0,0-8.06,2A17.56,17.56,0,0,0,486,29.4a24.72,24.72,0,0,0-3.3,7.62A35.26,35.26,0,0,0,481.58,45.72Z"/>
          </g>
          <g class="cls-1">
            <path class="cls-3" d="M562.35,90.68V.51h24.76V69.09H628V90.68Z"/>
          </g>
          <g class="cls-1">
            <path class="cls-3" d="M682.87,69.47a13.63,13.63,0,0,0,7.37-1.91,15.2,15.2,0,0,0,5-5,23.34,23.34,0,0,0,2.8-7.18,39.86,39.86,0,0,0,.89-8.51V.51h24.76V46.86a62.26,62.26,0,0,1-2.41,17.59,38.18,38.18,0,0,1-7.5,14.16A35.31,35.31,0,0,1,701,88a44.05,44.05,0,0,1-18.1,3.43q-10.79,0-18.47-3.62a35.3,35.3,0,0,1-12.64-9.72,39,39,0,0,1-7.24-14.16,62,62,0,0,1-2.29-17.08V.51H667V46.86a40.15,40.15,0,0,0,.89,8.58,22.9,22.9,0,0,0,2.79,7.23,14.78,14.78,0,0,0,4.89,5A13.62,13.62,0,0,0,682.87,69.47Z"/>
            <path class="cls-3" d="M814.83,90.68V43.18l-15.12,33.4H786.5l-15.11-33.4v47.5H746.63V.51h27l19.43,42.42L812.67.51h26.92V90.68Z"/>
            <path class="cls-3" d="M928.23,69.09V90.68H864V.51h63.12V22.1H888.74V34.8H921.5V54.86H888.74V69.09Z"/>
          </g>
        </g>
      </g>
    </g>
  </g>
</svg>
